# Blender 4.4.1
# www.blender.org
mtllib note.mtl
o Cube
v 2.000000 1.242000 -0.167952
v 2.000000 -1.242000 -0.167952
v 2.000000 1.242000 -0.135980
v 2.000000 -1.242000 -0.135980
v -2.000000 1.242000 -0.167952
v -2.000000 -1.242000 -0.167952
v -2.000000 1.242000 -0.135980
v -2.000000 -1.242000 -0.135980
v 0.100765 -1.250966 -0.056616
v -0.096635 -1.243915 -0.053438
v 0.100765 1.233034 -0.024644
v -0.096635 1.240085 -0.021466
v 0.100765 -1.250966 -0.024644
v -0.096635 -1.243915 -0.021466
v -0.096635 1.240085 -0.053438
v 0.100765 1.233034 -0.056616
v -1.674897 -1.242000 -0.137767
v -1.674897 -1.242000 -0.105795
v -1.674897 1.242000 -0.137767
v -1.674897 1.242000 -0.105795
v 1.673343 -1.242000 -0.137767
v 1.673343 -1.242000 -0.105795
v 1.673343 1.242000 -0.137767
v 1.673343 1.242000 -0.105795
v 0.002327 -1.241844 -0.116654
v -0.000895 1.237875 -0.109335
v 0.002327 -1.241844 -0.084682
v -0.000895 1.237875 -0.077363
v -0.096635 1.240085 -0.021466
v -0.000895 1.237875 -0.077363
v -0.022960 1.239955 -0.085130
v -0.086001 1.239934 -0.029411
v -0.075123 1.239761 -0.037197
v -0.064222 1.239569 -0.044663
v -0.053520 1.239363 -0.051659
v -0.043235 1.239146 -0.058041
v -0.033576 1.238923 -0.063681
v -0.024739 1.238699 -0.068462
v -0.016906 1.238477 -0.072289
v -0.010234 1.238263 -0.075082
v -0.004861 1.238061 -0.076785
v 0.002327 -1.241844 -0.084682
v -0.096635 -1.243915 -0.021466
v -0.036697 -1.245121 -0.090902
v -0.003422 -1.241886 -0.084128
v -0.010338 -1.241966 -0.082284
v -0.018280 -1.242082 -0.079189
v -0.027087 -1.242232 -0.074904
v -0.036579 -1.242414 -0.069518
v -0.046563 -1.242623 -0.063140
v -0.056836 -1.242855 -0.055900
v -0.067189 -1.243105 -0.047946
v -0.077411 -1.243369 -0.039438
v -0.087293 -1.243641 -0.030551
v -0.000895 1.237875 -0.077363
v 0.100765 1.233034 -0.024644
v 0.020489 1.237485 -0.085166
v 0.003619 1.237637 -0.076725
v 0.009968 1.237317 -0.074802
v 0.017995 1.236921 -0.071642
v 0.027503 1.236460 -0.067324
v 0.038258 1.235945 -0.061952
v 0.049994 1.235389 -0.055660
v 0.062422 1.234805 -0.048603
v 0.075238 1.234208 -0.040954
v 0.088125 1.233613 -0.032902
v 0.100765 -1.250966 -0.024644
v 0.002327 -1.241844 -0.084682
v 0.037062 -1.244056 -0.096013
v 0.090537 -1.249516 -0.033939
v 0.079678 -1.248107 -0.043022
v 0.068455 -1.246771 -0.051669
v 0.057143 -1.245543 -0.059667
v 0.046022 -1.244452 -0.066819
v 0.035365 -1.243525 -0.072949
v 0.025436 -1.242785 -0.077906
v 0.016477 -1.242250 -0.081569
v 0.008710 -1.241934 -0.083846
v 0.002327 -1.241844 -0.116654
v 0.100765 -1.250966 -0.056616
v 0.037062 -1.244056 -0.096015
v 0.008070 -1.241917 -0.115954
v 0.014970 -1.242176 -0.114060
v 0.022886 -1.242618 -0.111010
v 0.031657 -1.243233 -0.106866
v 0.041104 -1.244008 -0.101713
v 0.051036 -1.244929 -0.095656
v 0.061249 -1.245975 -0.088818
v 0.071536 -1.247126 -0.081338
v 0.081688 -1.248358 -0.073368
v 0.091497 -1.249647 -0.065071
v 0.100765 1.233034 -0.056616
v -0.000895 1.237875 -0.109335
v 0.020489 1.237485 -0.085168
v 0.089289 1.233560 -0.064128
v 0.077585 1.234100 -0.071486
v 0.065892 1.234643 -0.078540
v 0.054449 1.235179 -0.085146
v 0.043487 1.235697 -0.091169
v 0.033231 1.236185 -0.096488
v 0.023889 1.236634 -0.100994
v 0.015650 1.237036 -0.104594
v 0.008684 1.237381 -0.107217
v 0.003131 1.237663 -0.108808
v -0.096635 -1.243915 -0.053438
v 0.002327 -1.241844 -0.116654
v -0.036697 -1.245121 -0.090904
v -0.088770 -1.243683 -0.061134
v -0.080497 -1.243452 -0.068708
v -0.071936 -1.243226 -0.076049
v -0.063211 -1.243007 -0.083052
v -0.054451 -1.242800 -0.089612
v -0.045782 -1.242606 -0.095635
v -0.037332 -1.242429 -0.101033
v -0.029224 -1.242272 -0.105727
v -0.021575 -1.242136 -0.109649
v -0.014497 -1.242024 -0.112741
v -0.008094 -1.241937 -0.114959
v -0.002459 -1.241877 -0.116270
v -0.000895 1.237875 -0.109335
v -0.096635 1.240085 -0.053438
v -0.022960 1.239955 -0.085132
v -0.004157 1.238032 -0.108919
v -0.008437 1.238200 -0.107696
v -0.013673 1.238377 -0.105682
v -0.019789 1.238562 -0.102907
v -0.026696 1.238750 -0.099412
v -0.034292 1.238940 -0.095248
v -0.042467 1.239129 -0.090475
v -0.051102 1.239314 -0.085163
v -0.060070 1.239491 -0.079389
v -0.069242 1.239660 -0.073238
v -0.078483 1.239817 -0.066800
v -0.087659 1.239959 -0.060167
vn 0.0018 1.0000 -0.0000
vn -0.0057 1.0000 -0.0000
vn -1.0000 -0.0000 -0.0000
vn -0.0920 -0.0000 -0.9958
vn 1.0000 -0.0000 -0.0000
vn -0.0925 -0.0000 0.9957
vn -0.0000 -1.0000 -0.0000
vn 0.0534 -0.0000 -0.9986
vn -0.0000 1.0000 -0.0000
vn 0.0515 -0.0000 0.9987
vn -0.1078 -0.9942 -0.0000
vn 0.0554 0.9985 -0.0000
vn -0.0012 -1.0000 -0.0000
vn -0.0201 -0.9998 -0.0000
vn -0.0635 -0.9980 -0.0000
vn 0.0182 0.9998 -0.0000
vn 0.0938 0.9956 -0.0000
vn 0.0012 1.0000 -0.0000
vn 0.0925 -0.0000 -0.9957
vn -0.0534 -0.0000 0.9986
vn 0.0920 -0.0000 0.9958
vn 0.0057 -1.0000 -0.0000
vn -0.0515 -0.0000 -0.9987
vn 0.0837 -0.9965 -0.0000
vn 0.0927 0.9901 0.1053
vn 0.0843 0.9918 0.0958
vn 0.0794 0.9927 0.0904
vn 0.0760 0.9933 0.0869
vn 0.0734 0.9937 0.0847
vn 0.0716 0.9940 0.0832
vn 0.0698 0.9942 0.0824
vn 0.0683 0.9943 0.0822
vn 0.0666 0.9943 0.0830
vn 0.0645 0.9942 0.0856
vn 0.0603 0.9937 0.0945
vn 0.0346 -0.9573 0.2871
vn 0.0590 -0.9821 0.1790
vn 0.0708 -0.9869 0.1447
vn 0.0802 -0.9882 0.1302
vn 0.0896 -0.9882 0.1246
vn 0.1001 -0.9872 0.1244
vn 0.1130 -0.9852 0.1288
vn 0.1301 -0.9818 0.1384
vn 0.1547 -0.9756 0.1556
vn 0.1938 -0.9632 0.1862
vn 0.2682 -0.9310 0.2477
vn 0.5986 -0.0000 0.8011
vn 0.5820 -0.0007 0.8132
vn 0.5651 -0.0013 0.8250
vn 0.5471 -0.0018 0.8370
vn 0.5272 -0.0022 0.8497
vn 0.5042 -0.0025 0.8636
vn 0.4759 -0.0026 0.8795
vn 0.4388 -0.0027 0.8986
vn 0.3861 -0.0028 0.9224
vn 0.3021 -0.0028 0.9533
vn 0.1442 -0.0028 0.9895
vn 0.0429 0.9968 0.0678
vn 0.0348 0.9981 0.0516
vn 0.0306 0.9984 0.0473
vn 0.0272 0.9985 0.0467
vn 0.0239 0.9986 0.0480
vn 0.0200 0.9985 0.0509
vn 0.0153 0.9983 0.0557
vn 0.0090 0.9980 0.0629
vn -0.0006 0.9972 0.0746
vn -0.0166 0.9953 0.0953
vn -0.2706 -0.9510 0.1495
vn -0.1967 -0.9769 0.0835
vn -0.1559 -0.9865 0.0500
vn -0.1296 -0.9911 0.0311
vn -0.1107 -0.9936 0.0205
vn -0.0957 -0.9953 0.0159
vn -0.0827 -0.9964 0.0169
vn -0.0698 -0.9972 0.0252
vn -0.0544 -0.9974 0.0471
vn -0.0281 -0.9938 0.1078
vn -0.6726 -0.0010 0.7400
vn -0.6417 -0.0018 0.7669
vn -0.6105 -0.0025 0.7920
vn -0.5775 -0.0030 0.8164
vn -0.5411 -0.0033 0.8409
vn -0.4989 -0.0035 0.8667
vn -0.4469 -0.0036 0.8946
vn -0.3786 -0.0035 0.9256
vn -0.2815 -0.0033 0.9596
vn -0.1299 -0.0031 0.9915
vn 0.0006 -0.9942 -0.1075
vn -0.0135 -0.9961 -0.0871
vn -0.0296 -0.9973 -0.0676
vn -0.0447 -0.9976 -0.0534
vn -0.0558 -0.9973 -0.0479
vn -0.0609 -0.9968 -0.0515
vn -0.0606 -0.9962 -0.0619
vn -0.0565 -0.9955 -0.0755
vn -0.0505 -0.9947 -0.0895
vn -0.0437 -0.9938 -0.1026
vn -0.0370 -0.9928 -0.1143
vn 0.0667 0.9973 -0.0322
vn 0.0672 0.9972 -0.0337
vn 0.0675 0.9971 -0.0351
vn 0.0677 0.9970 -0.0364
vn 0.0677 0.9970 -0.0376
vn 0.0675 0.9970 -0.0386
vn 0.0669 0.9970 -0.0392
vn 0.0658 0.9971 -0.0395
vn 0.0640 0.9972 -0.0390
vn 0.0614 0.9974 -0.0376
vn 0.0572 0.9978 -0.0345
vn 0.5477 -0.0000 -0.8367
vn 0.5323 0.0008 -0.8466
vn 0.5166 0.0015 -0.8562
vn 0.5000 0.0021 -0.8660
vn 0.4817 0.0026 -0.8763
vn 0.4605 0.0030 -0.8877
vn 0.4345 0.0033 -0.9007
vn 0.4006 0.0034 -0.9162
vn 0.3525 0.0034 -0.9358
vn 0.2756 0.0034 -0.9613
vn 0.1300 0.0031 -0.9915
vn -0.1062 -0.9847 -0.1382
vn -0.1176 -0.9804 -0.1583
vn -0.1281 -0.9754 -0.1794
vn -0.1368 -0.9701 -0.2007
vn -0.1422 -0.9650 -0.2204
vn -0.1429 -0.9611 -0.2365
vn -0.1373 -0.9594 -0.2463
vn -0.1246 -0.9608 -0.2475
vn -0.1052 -0.9654 -0.2386
vn -0.0807 -0.9722 -0.2199
vn -0.0537 -0.9796 -0.1936
vn -0.0274 -0.9862 -0.1631
vn -0.0039 -0.9913 -0.1319
vn 0.0418 0.9980 -0.0477
vn 0.0208 0.9977 -0.0642
vn 0.0053 0.9972 -0.0742
vn -0.0058 0.9968 -0.0792
vn -0.0135 0.9967 -0.0805
vn -0.0185 0.9967 -0.0792
vn -0.0214 0.9969 -0.0760
vn -0.0226 0.9972 -0.0715
vn -0.0227 0.9976 -0.0659
vn -0.0217 0.9980 -0.0597
vn -0.0200 0.9984 -0.0529
vn -0.0176 0.9988 -0.0458
vn -0.0148 0.9992 -0.0385
vn -0.6994 0.0006 -0.7147
vn -0.6753 0.0011 -0.7376
vn -0.6510 0.0016 -0.7591
vn -0.6260 0.0019 -0.7799
vn -0.5995 0.0022 -0.8004
vn -0.5706 0.0025 -0.8212
vn -0.5384 0.0026 -0.8427
vn -0.5010 0.0027 -0.8654
vn -0.4563 0.0027 -0.8898
vn -0.4004 0.0027 -0.9163
vn -0.3273 0.0027 -0.9449
vn -0.2266 0.0027 -0.9740
vn -0.0801 0.0028 -0.9968
vn 0.0542 0.9979 -0.0362
vn 0.0596 -0.9882 -0.1414
vn 0.0699 0.9970 -0.0333
vn -0.0058 -0.9871 -0.1603
vn -0.0320 -0.9888 -0.1460
vn -0.0276 0.9990 -0.0366
vn -0.0499 0.9980 -0.0381
vn 0.0815 -0.9877 -0.1336
vn 0.6972 -0.0007 0.7169
vn 0.6687 -0.0013 0.7435
vn 0.6397 -0.0018 0.7686
vn 0.6093 -0.0022 0.7929
vn 0.5761 -0.0025 0.8174
vn 0.5384 -0.0026 0.8427
vn 0.4935 -0.0027 0.8697
vn 0.4375 -0.0027 0.8992
vn 0.3632 -0.0027 0.9317
vn 0.2576 -0.0027 0.9662
vn 0.0960 -0.0028 0.9954
vn -0.5469 -0.0000 0.8372
vn -0.5299 -0.0009 0.8480
vn -0.5126 -0.0016 0.8586
vn -0.4939 -0.0023 0.8695
vn -0.4726 -0.0028 0.8813
vn -0.4469 -0.0032 0.8946
vn -0.4137 -0.0034 0.9104
vn -0.3664 -0.0034 0.9304
vn -0.2900 -0.0034 0.9570
vn -0.1402 -0.0031 0.9901
vn 0.6741 0.0009 -0.7387
vn 0.6459 0.0016 -0.7634
vn 0.6177 0.0023 -0.7864
vn 0.5883 0.0028 -0.8086
vn 0.5566 0.0032 -0.8308
vn 0.5209 0.0035 -0.8536
vn 0.4791 0.0036 -0.8778
vn 0.4274 0.0036 -0.9041
vn 0.3597 0.0035 -0.9331
vn 0.2649 0.0033 -0.9643
vn 0.1210 0.0031 -0.9926
vn -0.5998 -0.0000 -0.8001
vn -0.5858 0.0006 -0.8104
vn -0.5717 0.0011 -0.8205
vn -0.5570 0.0015 -0.8305
vn -0.5413 0.0019 -0.8409
vn -0.5239 0.0022 -0.8518
vn -0.5042 0.0025 -0.8636
vn -0.4807 0.0026 -0.8769
vn -0.4515 0.0027 -0.8923
vn -0.4131 0.0028 -0.9107
vn -0.3589 0.0028 -0.9334
vn -0.2748 0.0028 -0.9615
vn -0.1263 0.0029 -0.9920
vt 0.531237 0.262898
vt 0.530506 0.207964
vt 0.531237 0.235313
vt 0.529272 0.232562
vt 0.513678 0.190059
vt 0.513678 0.162474
vt 0.004359 0.197383
vt 0.212755 0.100215
vt 0.212725 0.197412
vt 0.921630 0.445371
vt 0.988788 0.975580
vt 0.924144 0.976205
vt 0.440409 0.111525
vt 0.232202 0.208857
vt 0.232043 0.111673
vt 0.004327 0.289462
vt 0.212692 0.289491
vt 0.507197 0.162506
vt 0.510437 0.164000
vt 0.507197 0.190090
vt 0.532584 0.976829
vt 0.724814 0.450367
vt 0.721117 0.981180
vt 0.546897 0.162625
vt 0.550122 0.164181
vt 0.546897 0.190210
vt 0.232358 0.301057
vt 0.440409 0.549732
vt 0.232043 0.549880
vt 0.491602 0.260331
vt 0.490964 0.198764
vt 0.491602 0.232747
vt 0.285602 0.060948
vt 0.530073 0.207933
vt 0.529272 0.260147
vt 0.489637 0.235517
vt 0.473977 0.190573
vt 0.473977 0.162989
vt 0.490233 0.203186
vt 0.489637 0.263101
vt 0.490618 0.180962
vt 0.490964 0.198766
vt 0.490618 0.208546
vt 0.530073 0.207931
vt 0.530285 0.187080
vt 0.530285 0.214666
vt 0.530506 0.207965
vt 0.470752 0.164578
vt 0.470752 0.136994
vt 0.471628 0.444665
vt 0.467932 0.975478
vt 0.004390 0.547348
vt 0.212755 0.547377
vt 0.440567 0.208710
vt 0.739469 0.449046
vt 0.741983 0.979880
vt 0.510437 0.164001
vt 0.510437 0.136416
vt 0.490233 0.203184
vt 0.531131 0.256042
vt 0.531023 0.249325
vt 0.530915 0.242882
vt 0.530809 0.236846
vt 0.530706 0.231339
vt 0.530611 0.226472
vt 0.530523 0.222347
vt 0.530445 0.219045
vt 0.530378 0.216635
vt 0.530325 0.215165
vt 0.490560 0.209025
vt 0.490492 0.210617
vt 0.490413 0.213289
vt 0.490326 0.216987
vt 0.490232 0.221635
vt 0.490133 0.227139
vt 0.490031 0.233387
vt 0.489929 0.240251
vt 0.489828 0.247592
vt 0.489730 0.255261
vt 0.004771 0.035176
vt 0.285586 0.031570
vt 0.285602 0.035176
vt 0.004803 0.031053
vt 0.285566 0.028036
vt 0.004833 0.027019
vt 0.285544 0.024646
vt 0.004863 0.023158
vt 0.285521 0.021471
vt 0.004892 0.019547
vt 0.285496 0.018573
vt 0.004917 0.016261
vt 0.285471 0.016013
vt 0.004942 0.013365
vt 0.285446 0.013842
vt 0.004961 0.010920
vt 0.285420 0.012105
vt 0.004978 0.008975
vt 0.285397 0.010836
vt 0.004991 0.007569
vt 0.285373 0.010062
vt 0.005001 0.006731
vt 0.285352 0.009799
vt 0.530240 0.215216
vt 0.530177 0.216875
vt 0.530097 0.219601
vt 0.530002 0.223327
vt 0.529895 0.227961
vt 0.529778 0.233389
vt 0.529654 0.239477
vt 0.529527 0.246076
vt 0.529398 0.253023
vt 0.491499 0.252313
vt 0.491390 0.244478
vt 0.491278 0.237020
vt 0.491165 0.230121
vt 0.491053 0.223952
vt 0.490947 0.218664
vt 0.490848 0.214389
vt 0.490758 0.211230
vt 0.490681 0.209267
vt 0.566433 0.033732
vt 0.285679 0.029928
vt 0.566429 0.029513
vt 0.285750 0.026272
vt 0.566426 0.025391
vt 0.285814 0.022800
vt 0.566423 0.021466
vt 0.285870 0.019596
vt 0.566421 0.017836
vt 0.285915 0.016740
vt 0.566421 0.014589
vt 0.285948 0.014302
vt 0.566422 0.011807
vt 0.285971 0.012341
vt 0.566423 0.009556
vt 0.285980 0.010906
vt 0.566426 0.007893
vt 0.285977 0.010033
vt 0.566429 0.006859
vt 0.285961 0.009742
vt 0.566433 0.006478
vt 0.490675 0.181565
vt 0.490743 0.183199
vt 0.490822 0.185829
vt 0.490910 0.189403
vt 0.491004 0.193847
vt 0.491103 0.199071
vt 0.491206 0.204970
vt 0.491309 0.211422
vt 0.491410 0.218296
vt 0.491509 0.225453
vt 0.529387 0.226081
vt 0.529503 0.219733
vt 0.529620 0.213648
vt 0.529734 0.207949
vt 0.529843 0.202752
vt 0.529945 0.198163
vt 0.530038 0.194276
vt 0.530120 0.191170
vt 0.530190 0.188907
vt 0.530245 0.187535
vt 0.285602 0.060948
vt 0.566364 0.057486
vt 0.566432 0.060892
vt 0.285606 0.057114
vt 0.566298 0.054151
vt 0.285609 0.053352
vt 0.566238 0.050953
vt 0.285612 0.049739
vt 0.566185 0.047959
vt 0.285613 0.046348
vt 0.566141 0.045228
vt 0.285614 0.043248
vt 0.566104 0.042818
vt 0.285614 0.040502
vt 0.566079 0.040776
vt 0.285613 0.038166
vt 0.566062 0.039144
vt 0.285611 0.036288
vt 0.566055 0.037955
vt 0.285609 0.034906
vt 0.566060 0.037235
vt 0.285606 0.034048
vt 0.566076 0.036997
vt 0.489715 0.228876
vt 0.489797 0.222340
vt 0.489882 0.216005
vt 0.489968 0.209963
vt 0.490055 0.204301
vt 0.490141 0.199104
vt 0.490225 0.194445
vt 0.490305 0.190394
vt 0.490381 0.187009
vt 0.490451 0.184341
vt 0.490514 0.182426
vt 0.490570 0.181295
vt 0.530318 0.187439
vt 0.530360 0.188495
vt 0.530413 0.190233
vt 0.530473 0.192627
vt 0.530542 0.195643
vt 0.530618 0.199236
vt 0.530699 0.203355
vt 0.530785 0.207939
vt 0.530874 0.212920
vt 0.530965 0.218228
vt 0.531057 0.223784
vt 0.531148 0.229506
vt 0.285602 0.063844
vt 0.004808 0.060780
vt 0.285602 0.060353
vt 0.004847 0.057773
vt 0.285602 0.056918
vt 0.004887 0.054853
vt 0.285602 0.053588
vt 0.004927 0.052063
vt 0.285601 0.050412
vt 0.004966 0.049445
vt 0.285600 0.047437
vt 0.005006 0.047036
vt 0.285599 0.044706
vt 0.005043 0.044872
vt 0.285596 0.042258
vt 0.005078 0.042984
vt 0.285595 0.040129
vt 0.005111 0.041399
vt 0.285593 0.038351
vt 0.005142 0.040141
vt 0.285591 0.036949
vt 0.005169 0.039228
vt 0.285588 0.035944
vt 0.005192 0.038673
vt 0.285586 0.035350
vt 0.005211 0.038485
vt 0.285583 0.035176
vt 0.004390 0.100186
vt 0.986274 0.444746
vt 0.536281 0.446016
vt 0.550122 0.136596
vt 0.440724 0.300910
vt 0.005005 0.006478
vt 0.285602 0.033676
vt 0.285602 0.033732
vt 0.004771 0.063832
s 0
usemtl note-texture
f 12/1/1 122/2/1 121/3/1
f 16/4/2 24/5/2 23/6/2
f 7/7/3 6/8/3 8/9/3
f 23/10/4 2/11/4 21/12/4
f 1/13/5 4/14/5 2/15/5
f 20/16/6 8/9/6 18/17/6
f 21/18/7 4/19/7 22/20/7
f 17/21/8 15/22/8 10/23/8
f 19/24/9 7/25/9 20/26/9
f 22/27/10 11/28/10 13/29/10
f 13/30/11 81/31/11 80/32/11
f 12/33/9 43/33/9 29/33/9
f 57/34/12 56/35/12 16/4/12
f 10/36/13 18/37/13 17/38/13
f 44/39/14 43/40/14 10/36/14
f 25/41/15 69/42/15 68/43/15
f 94/44/16 93/45/16 28/46/16
f 26/45/17 31/47/17 30/46/17
f 27/33/9 30/33/9 42/33/9
f 16/33/9 80/33/9 92/33/9
f 17/38/7 8/48/7 6/49/7
f 15/3/18 20/26/18 12/1/18
f 5/50/19 17/21/19 6/51/19
f 12/52/20 18/17/20 14/53/20
f 3/54/21 22/27/21 4/14/21
f 9/32/22 22/20/22 13/30/22
f 16/55/23 21/12/23 9/56/23
f 23/6/9 3/57/9 1/58/9
f 56/33/9 13/33/9 11/33/9
f 107/59/24 106/41/24 27/43/24
f 121/33/9 10/33/9 15/33/9
f 29/1/25 32/60/25 31/47/25
f 32/60/26 33/61/26 31/47/26
f 33/61/27 34/62/27 31/47/27
f 34/62/28 35/63/28 31/47/28
f 35/63/29 36/64/29 31/47/29
f 36/64/30 37/65/30 31/47/30
f 37/65/31 38/66/31 31/47/31
f 38/66/32 39/67/32 31/47/32
f 39/67/33 40/68/33 31/47/33
f 40/68/34 41/69/34 31/47/34
f 41/69/35 30/46/35 31/47/35
f 42/43/36 45/70/36 44/39/36
f 45/70/37 46/71/37 44/39/37
f 46/71/38 47/72/38 44/39/38
f 47/72/39 48/73/39 44/39/39
f 48/73/40 49/74/40 44/39/40
f 49/74/41 50/75/41 44/39/41
f 50/75/42 51/76/42 44/39/42
f 51/76/43 52/77/43 44/39/43
f 52/77/44 53/78/44 44/39/44
f 53/78/45 54/79/45 44/39/45
f 54/79/46 43/40/46 44/39/46
f 43/80/47 32/81/47 29/82/47
f 54/83/48 33/84/48 32/81/48
f 53/85/49 34/86/49 33/84/49
f 52/87/50 35/88/50 34/86/50
f 51/89/51 36/90/51 35/88/51
f 50/91/52 37/92/52 36/90/52
f 49/93/53 38/94/53 37/92/53
f 48/95/54 39/96/54 38/94/54
f 47/97/55 40/98/55 39/96/55
f 46/99/56 41/100/56 40/98/56
f 45/101/57 30/102/57 41/100/57
f 55/46/58 58/103/58 57/34/58
f 58/103/59 59/104/59 57/34/59
f 59/104/60 60/105/60 57/34/60
f 60/105/61 61/106/61 57/34/61
f 61/106/62 62/107/62 57/34/62
f 62/107/63 63/108/63 57/34/63
f 63/108/64 64/109/64 57/34/64
f 64/109/65 65/110/65 57/34/65
f 65/110/66 66/111/66 57/34/66
f 66/111/67 56/35/67 57/34/67
f 67/30/68 70/112/68 69/42/68
f 70/112/69 71/113/69 69/42/69
f 71/113/70 72/114/70 69/42/70
f 72/114/71 73/115/71 69/42/71
f 73/115/72 74/116/72 69/42/72
f 74/116/73 75/117/73 69/42/73
f 75/117/74 76/118/74 69/42/74
f 76/118/75 77/119/75 69/42/75
f 77/119/76 78/120/76 69/42/76
f 78/120/77 68/43/77 69/42/77
f 67/121/78 66/122/78 70/123/78
f 70/123/79 65/124/79 71/125/79
f 71/125/80 64/126/80 72/127/80
f 72/127/81 63/128/81 73/129/81
f 73/129/82 62/130/82 74/131/82
f 74/131/83 61/132/83 75/133/83
f 75/133/84 60/134/84 76/135/84
f 76/135/85 59/136/85 77/137/85
f 77/137/86 58/138/86 78/139/86
f 78/139/87 55/140/87 68/141/87
f 68/33/9 28/33/9 27/33/9
f 79/41/88 82/142/88 81/31/88
f 82/142/89 83/143/89 81/31/89
f 83/143/90 84/144/90 81/31/90
f 84/144/91 85/145/91 81/31/91
f 85/145/92 86/146/92 81/31/92
f 86/146/93 87/147/93 81/31/93
f 87/147/94 88/148/94 81/31/94
f 88/148/95 89/149/95 81/31/95
f 89/149/96 90/150/96 81/31/96
f 90/150/97 91/151/97 81/31/97
f 91/151/98 80/32/98 81/31/98
f 92/4/99 95/152/99 94/44/99
f 95/152/100 96/153/100 94/44/100
f 96/153/101 97/154/101 94/44/101
f 97/154/102 98/155/102 94/44/102
f 98/155/103 99/156/103 94/44/103
f 99/156/104 100/157/104 94/44/104
f 100/157/105 101/158/105 94/44/105
f 101/158/106 102/159/106 94/44/106
f 102/159/107 103/160/107 94/44/107
f 103/160/108 104/161/108 94/44/108
f 104/161/109 93/45/109 94/44/109
f 80/162/110 95/163/110 92/164/110
f 91/165/111 96/166/111 95/163/111
f 90/167/112 97/168/112 96/166/112
f 89/169/113 98/170/113 97/168/113
f 88/171/114 99/172/114 98/170/114
f 87/173/115 100/174/115 99/172/115
f 86/175/116 101/176/116 100/174/116
f 85/177/117 102/178/117 101/176/117
f 84/179/118 103/180/118 102/178/118
f 83/181/119 104/182/119 103/180/119
f 82/183/120 93/184/120 104/182/120
f 25/33/9 93/33/9 79/33/9
f 105/36/121 108/185/121 107/59/121
f 108/185/122 109/186/122 107/59/122
f 109/186/123 110/187/123 107/59/123
f 110/187/124 111/188/124 107/59/124
f 111/188/125 112/189/125 107/59/125
f 112/189/126 113/190/126 107/59/126
f 113/190/127 114/191/127 107/59/127
f 114/191/128 115/192/128 107/59/128
f 115/192/129 116/193/129 107/59/129
f 116/193/130 117/194/130 107/59/130
f 117/194/131 118/195/131 107/59/131
f 118/195/132 119/196/132 107/59/132
f 119/196/133 106/41/133 107/59/133
f 120/45/134 123/197/134 122/2/134
f 123/197/135 124/198/135 122/2/135
f 124/198/136 125/199/136 122/2/136
f 125/199/137 126/200/137 122/2/137
f 126/200/138 127/201/138 122/2/138
f 127/201/139 128/202/139 122/2/139
f 128/202/140 129/203/140 122/2/140
f 129/203/141 130/204/141 122/2/141
f 130/204/142 131/205/142 122/2/142
f 131/205/143 132/206/143 122/2/143
f 132/206/144 133/207/144 122/2/144
f 133/207/145 134/208/145 122/2/145
f 134/208/146 121/3/146 122/2/146
f 105/209/147 134/210/147 108/211/147
f 108/211/148 133/212/148 109/213/148
f 109/213/149 132/214/149 110/215/149
f 110/215/150 131/216/150 111/217/150
f 111/217/151 130/218/151 112/219/151
f 112/219/152 129/220/152 113/221/152
f 113/221/153 128/222/153 114/223/153
f 114/223/154 127/224/154 115/225/154
f 115/225/155 126/226/155 116/227/155
f 116/227/156 125/228/156 117/229/156
f 117/229/157 124/230/157 118/231/157
f 118/231/158 123/232/158 119/233/158
f 119/233/159 120/234/159 106/235/159
f 106/33/9 26/33/9 25/33/9
f 12/1/9 29/1/9 31/47/9
f 12/1/160 31/47/160 122/2/160
f 121/3/9 15/3/9 12/1/9
f 16/4/2 11/35/2 24/5/2
f 7/7/3 5/236/3 6/8/3
f 23/10/4 1/237/4 2/11/4
f 1/13/5 3/54/5 4/14/5
f 20/16/6 7/7/6 8/9/6
f 21/18/7 2/58/7 4/19/7
f 17/21/8 19/238/8 15/22/8
f 19/24/9 5/239/9 7/25/9
f 22/27/10 24/240/10 11/28/10
f 13/30/9 67/30/9 69/42/9
f 13/30/161 69/42/161 81/31/161
f 80/32/9 9/32/9 13/30/9
f 12/33/9 14/33/9 43/33/9
f 16/4/9 92/4/9 94/44/9
f 16/4/162 94/44/162 57/34/162
f 56/35/9 11/35/9 16/4/9
f 10/36/13 14/40/13 18/37/13
f 10/36/9 105/36/9 107/59/9
f 10/36/163 107/59/163 44/39/163
f 43/40/9 14/40/9 10/36/9
f 25/41/9 79/41/9 81/31/9
f 25/41/164 81/31/164 69/42/164
f 68/43/9 27/43/9 25/41/9
f 28/46/9 55/46/9 57/34/9
f 28/46/165 57/34/165 94/44/165
f 93/45/9 26/45/9 28/46/9
f 26/45/9 120/45/9 122/2/9
f 26/45/166 122/2/166 31/47/166
f 30/46/9 28/46/9 26/45/9
f 27/33/9 28/33/9 30/33/9
f 16/33/9 9/33/9 80/33/9
f 17/38/7 18/37/7 8/48/7
f 15/3/18 19/24/18 20/26/18
f 5/50/19 19/238/19 17/21/19
f 12/52/20 20/16/20 18/17/20
f 3/54/21 24/240/21 22/27/21
f 9/32/22 21/18/22 22/20/22
f 16/55/23 23/10/23 21/12/23
f 23/6/9 24/5/9 3/57/9
f 56/33/9 67/33/9 13/33/9
f 27/43/9 42/43/9 44/39/9
f 27/43/167 44/39/167 107/59/167
f 106/41/9 25/41/9 27/43/9
f 121/33/9 105/33/9 10/33/9
f 43/80/168 54/83/168 32/81/168
f 54/83/169 53/85/169 33/84/169
f 53/85/170 52/87/170 34/86/170
f 52/87/171 51/89/171 35/88/171
f 51/89/172 50/91/172 36/90/172
f 50/91/173 49/93/173 37/92/173
f 49/93/174 48/95/174 38/94/174
f 48/95/175 47/97/175 39/96/175
f 47/97/176 46/99/176 40/98/176
f 46/99/177 45/101/177 41/100/177
f 45/101/178 42/241/178 30/102/178
f 67/121/179 56/242/179 66/122/179
f 70/123/180 66/122/180 65/124/180
f 71/125/181 65/124/181 64/126/181
f 72/127/182 64/126/182 63/128/182
f 73/129/183 63/128/183 62/130/183
f 74/131/184 62/130/184 61/132/184
f 75/133/185 61/132/185 60/134/185
f 76/135/186 60/134/186 59/136/186
f 77/137/187 59/136/187 58/138/187
f 78/139/188 58/138/188 55/140/188
f 68/33/9 55/33/9 28/33/9
f 80/162/189 91/165/189 95/163/189
f 91/165/190 90/167/190 96/166/190
f 90/167/191 89/169/191 97/168/191
f 89/169/192 88/171/192 98/170/192
f 88/171/193 87/173/193 99/172/193
f 87/173/194 86/175/194 100/174/194
f 86/175/195 85/177/195 101/176/195
f 85/177/196 84/179/196 102/178/196
f 84/179/197 83/181/197 103/180/197
f 83/181/198 82/183/198 104/182/198
f 82/183/199 79/243/199 93/184/199
f 25/33/9 26/33/9 93/33/9
f 105/209/200 121/244/200 134/210/200
f 108/211/201 134/210/201 133/212/201
f 109/213/202 133/212/202 132/214/202
f 110/215/203 132/214/203 131/216/203
f 111/217/204 131/216/204 130/218/204
f 112/219/205 130/218/205 129/220/205
f 113/221/206 129/220/206 128/222/206
f 114/223/207 128/222/207 127/224/207
f 115/225/208 127/224/208 126/226/208
f 116/227/209 126/226/209 125/228/209
f 117/229/210 125/228/210 124/230/210
f 118/231/211 124/230/211 123/232/211
f 119/233/212 123/232/212 120/234/212
f 106/33/9 120/33/9 26/33/9
