# Blender 4.4.1
# www.blender.org
mtllib list3.mtl
o Cube.001
v -0.019451 1.206941 -0.024199
v -0.019451 -1.206939 -0.024199
v -1.902588 1.206942 0.077739
v -1.902588 -1.206939 0.077739
v -0.244099 -1.206939 0.214138
v -0.244099 1.206941 0.214138
v -1.902588 1.206942 0.077739
v -0.244099 1.206941 0.214138
v -1.854267 1.206942 0.089793
v -1.804399 1.206942 0.101549
v -1.753103 1.206942 0.112976
v -1.700504 1.206942 0.124050
v -1.646727 1.206942 0.134741
v -1.591903 1.206941 0.145026
v -1.536164 1.206941 0.154879
v -1.479644 1.206941 0.164276
v -1.422478 1.206941 0.173194
v -1.364806 1.206941 0.181613
v -1.306765 1.206941 0.189512
v -1.248495 1.206941 0.196872
v -1.190138 1.206941 0.203674
v -1.131833 1.206941 0.209904
v -1.073721 1.206941 0.215545
v -1.015941 1.206941 0.220585
v -0.958634 1.206941 0.225010
v -0.901938 1.206941 0.228811
v -0.845987 1.206941 0.231978
v -0.790919 1.206941 0.234504
v -0.736865 1.206941 0.236382
v -0.683955 1.206941 0.237608
v -0.632317 1.206941 0.238179
v -0.582076 1.206941 0.238094
v -0.533352 1.206941 0.237353
v -0.486262 1.206941 0.235957
v -0.440921 1.206941 0.233910
v -0.397437 1.206941 0.231217
v -0.355915 1.206941 0.227885
v -0.316456 1.206941 0.223921
v -0.279154 1.206941 0.219335
v -0.244099 -1.206939 0.214138
v -1.902588 -1.206939 0.077739
v -0.279154 -1.206939 0.219335
v -0.316456 -1.206939 0.223921
v -0.355916 -1.206939 0.227885
v -0.397437 -1.206939 0.231217
v -0.440921 -1.206939 0.233910
v -0.486262 -1.206939 0.235957
v -0.533352 -1.206939 0.237353
v -0.582076 -1.206939 0.238094
v -0.632317 -1.206939 0.238179
v -0.683955 -1.206939 0.237608
v -0.736865 -1.206939 0.236382
v -0.790919 -1.206939 0.234504
v -0.845988 -1.206939 0.231978
v -0.901938 -1.206939 0.228811
v -0.958635 -1.206939 0.225010
v -1.015942 -1.206939 0.220585
v -1.073721 -1.206939 0.215545
v -1.131833 -1.206939 0.209904
v -1.190138 -1.206939 0.203674
v -1.248495 -1.206939 0.196872
v -1.306765 -1.206939 0.189512
v -1.364806 -1.206939 0.181613
v -1.422479 -1.206939 0.173194
v -1.479644 -1.206939 0.164276
v -1.536164 -1.206939 0.154879
v -1.591904 -1.206939 0.145026
v -1.646728 -1.206939 0.134741
v -1.700504 -1.206939 0.124050
v -1.753103 -1.206939 0.112976
v -1.804399 -1.206939 0.101549
v -1.854268 -1.206939 0.089793
v -0.019451 -1.206939 -0.024199
v -0.244099 -1.206939 0.214138
v -0.019748 -1.206939 0.002843
v -0.024919 -1.206939 0.030395
v -0.034858 -1.206939 0.057894
v -0.049363 -1.206939 0.084782
v -0.068139 -1.206939 0.110511
v -0.090803 -1.206939 0.134556
v -0.116895 -1.206939 0.156429
v -0.145882 -1.206939 0.175685
v -0.177176 -1.206939 0.191931
v -0.210138 -1.206939 0.204836
v -0.244099 1.206941 0.214138
v -0.019451 1.206941 -0.024199
v -0.210138 1.206941 0.204836
v -0.177176 1.206941 0.191931
v -0.145882 1.206941 0.175685
v -0.116894 1.206941 0.156429
v -0.090803 1.206941 0.134556
v -0.068138 1.206941 0.110511
v -0.049362 1.206941 0.084782
v -0.034857 1.206941 0.057894
v -0.024918 1.206941 0.030395
v -0.019748 1.206941 0.002843
vn -0.0000 -1.0000 -0.0000
vn 0.1466 -0.0000 0.9892
vn 0.1220 -0.0000 0.9925
vn 0.1000 -0.0000 0.9950
vn 0.0800 -0.0000 0.9968
vn 0.0618 -0.0000 0.9981
vn 0.0451 -0.0000 0.9990
vn 0.0296 -0.0000 0.9996
vn 0.0152 -0.0000 0.9999
vn 0.0017 -0.0000 1.0000
vn -0.0111 -0.0000 0.9999
vn -0.0232 -0.0000 0.9997
vn -0.0347 -0.0000 0.9994
vn -0.0458 -0.0000 0.9989
vn -0.0565 -0.0000 0.9984
vn -0.0669 -0.0000 0.9978
vn -0.0770 -0.0000 0.9970
vn -0.0869 -0.0000 0.9962
vn -0.0966 -0.0000 0.9953
vn -0.1062 -0.0000 0.9943
vn -0.1158 -0.0000 0.9933
vn -0.1253 -0.0000 0.9921
vn -0.1348 -0.0000 0.9909
vn -0.1444 -0.0000 0.9895
vn -0.1542 -0.0000 0.9880
vn -0.1640 -0.0000 0.9865
vn -0.1741 -0.0000 0.9847
vn -0.1844 -0.0000 0.9829
vn -0.1950 -0.0000 0.9808
vn -0.2060 -0.0000 0.9786
vn -0.2175 -0.0000 0.9761
vn -0.2294 -0.0000 0.9733
vn -0.2420 -0.0000 0.9703
vn 0.9999 -0.0000 0.0110
vn 0.9828 -0.0000 0.1844
vn 0.9405 -0.0000 0.3399
vn 0.8801 -0.0000 0.4748
vn 0.8078 -0.0000 0.5895
vn 0.7277 -0.0000 0.6859
vn 0.6424 -0.0000 0.7663
vn 0.5533 -0.0000 0.8330
vn 0.4607 -0.0000 0.8875
vn 0.3646 -0.0000 0.9312
vn 0.2642 -0.0000 0.9645
vt 0.824311 0.003483
vt 0.818849 1.002346
vt 0.825260 0.004065
vt 0.823362 0.002901
vt 0.817900 1.001764
vt 0.799576 1.001082
vt 0.816951 1.001182
vt 0.805987 0.002801
vt 0.781149 1.000975
vt 0.787560 0.002694
vt 0.761705 1.000863
vt 0.768116 0.002581
vt 0.741282 1.000744
vt 0.747693 0.002463
vt 0.719921 1.000621
vt 0.726332 0.002340
vt 0.697668 1.000492
vt 0.704080 0.002211
vt 0.674571 1.000358
vt 0.680982 0.002077
vt 0.650679 1.000220
vt 0.657090 0.001939
vt 0.626046 1.000077
vt 0.632457 0.001796
vt 0.600727 0.999931
vt 0.607138 0.001649
vt 0.574779 0.999780
vt 0.581190 0.001499
vt 0.548260 0.999627
vt 0.554671 0.001346
vt 0.521232 0.999470
vt 0.527643 0.001189
vt 0.493757 0.999311
vt 0.500167 0.001030
vt 0.465896 0.999150
vt 0.472307 0.000869
vt 0.437716 0.998987
vt 0.444127 0.000706
vt 0.409279 0.998822
vt 0.415690 0.000541
vt 0.380653 0.998656
vt 0.387064 0.000375
vt 0.351904 0.998490
vt 0.358315 0.000209
vt 0.323098 0.998323
vt 0.329509 0.000042
vt 0.294302 0.998156
vt 0.300713 -0.000125
vt 0.265583 0.997990
vt 0.271994 -0.000291
vt 0.237007 0.997825
vt 0.243418 -0.000456
vt 0.208640 0.997660
vt 0.215051 -0.000621
vt 0.180548 0.997498
vt 0.186959 -0.000783
vt 0.152796 0.997337
vt 0.159207 -0.000944
vt 0.125448 0.997179
vt 0.131859 -0.001102
vt 0.098565 0.997023
vt 0.104976 -0.001258
vt 0.072211 0.996871
vt 0.078622 -0.001411
vt 0.046445 0.996722
vt 0.052856 -0.001560
vt 0.021325 0.996576
vt 0.027736 -0.001705
vt -0.003093 0.996435
vt 0.002369 -0.002428
vt 0.003318 -0.001846
vt 0.999058 0.005071
vt 0.979388 1.003276
vt 0.992647 1.003352
vt 0.985799 0.004995
vt 0.965644 1.003196
vt 0.972055 0.004915
vt 0.951307 1.003113
vt 0.957718 0.004832
vt 0.936329 1.003026
vt 0.942740 0.004745
vt 0.920712 1.002936
vt 0.927123 0.004655
vt 0.904512 1.002842
vt 0.910922 0.004561
vt 0.887818 1.002746
vt 0.894229 0.004464
vt 0.870756 1.002647
vt 0.877167 0.004366
vt 0.853469 1.002547
vt 0.859880 0.004265
vt 0.836113 1.002446
vt 0.842524 0.004165
vt 0.993597 1.003934
vt 1.000008 0.005653
vt -0.004042 0.995853
s 0
usemtl list
f 6/1/1 74/2/1 85/3/1
f 8/4/1 5/5/1 6/1/1
f 8/4/2 42/6/2 40/7/2
f 39/8/3 43/9/3 42/6/3
f 38/10/4 44/11/4 43/9/4
f 37/12/5 45/13/5 44/11/5
f 36/14/6 46/15/6 45/13/6
f 35/16/7 47/17/7 46/15/7
f 34/18/8 48/19/8 47/17/8
f 33/20/9 49/21/9 48/19/9
f 32/22/10 50/23/10 49/21/10
f 31/24/11 51/25/11 50/23/11
f 30/26/12 52/27/12 51/25/12
f 29/28/13 53/29/13 52/27/13
f 28/30/14 54/31/14 53/29/14
f 27/32/15 55/33/15 54/31/15
f 26/34/16 56/35/16 55/33/16
f 25/36/17 57/37/17 56/35/17
f 24/38/18 58/39/18 57/37/18
f 23/40/19 59/41/19 58/39/19
f 22/42/20 60/43/20 59/41/20
f 21/44/21 61/45/21 60/43/21
f 20/46/22 62/47/22 61/45/22
f 19/48/23 63/49/23 62/47/23
f 18/50/24 64/51/24 63/49/24
f 17/52/25 65/53/25 64/51/25
f 16/54/26 66/55/26 65/53/26
f 15/56/27 67/57/27 66/55/27
f 14/58/28 68/59/28 67/57/28
f 13/60/29 69/61/29 68/59/29
f 12/62/30 70/63/30 69/61/30
f 11/64/31 71/65/31 70/63/31
f 10/66/32 72/67/32 71/65/32
f 9/68/33 41/69/33 72/67/33
f 3/70/1 41/69/1 7/71/1
f 86/72/34 75/73/34 73/74/34
f 96/75/35 76/76/35 75/73/35
f 95/77/36 77/78/36 76/76/36
f 94/79/37 78/80/37 77/78/37
f 93/81/38 79/82/38 78/80/38
f 92/83/39 80/84/39 79/82/39
f 91/85/40 81/86/40 80/84/40
f 90/87/41 82/88/41 81/86/41
f 89/89/42 83/90/42 82/88/42
f 88/91/43 84/92/43 83/90/43
f 87/93/44 74/2/44 84/92/44
f 86/72/1 2/94/1 1/95/1
f 6/1/1 5/5/1 74/2/1
f 8/4/1 40/7/1 5/5/1
f 8/4/2 39/8/2 42/6/2
f 39/8/3 38/10/3 43/9/3
f 38/10/4 37/12/4 44/11/4
f 37/12/5 36/14/5 45/13/5
f 36/14/6 35/16/6 46/15/6
f 35/16/7 34/18/7 47/17/7
f 34/18/8 33/20/8 48/19/8
f 33/20/9 32/22/9 49/21/9
f 32/22/10 31/24/10 50/23/10
f 31/24/11 30/26/11 51/25/11
f 30/26/12 29/28/12 52/27/12
f 29/28/13 28/30/13 53/29/13
f 28/30/14 27/32/14 54/31/14
f 27/32/15 26/34/15 55/33/15
f 26/34/16 25/36/16 56/35/16
f 25/36/17 24/38/17 57/37/17
f 24/38/18 23/40/18 58/39/18
f 23/40/19 22/42/19 59/41/19
f 22/42/20 21/44/20 60/43/20
f 21/44/21 20/46/21 61/45/21
f 20/46/22 19/48/22 62/47/22
f 19/48/23 18/50/23 63/49/23
f 18/50/24 17/52/24 64/51/24
f 17/52/25 16/54/25 65/53/25
f 16/54/26 15/56/26 66/55/26
f 15/56/27 14/58/27 67/57/27
f 14/58/28 13/60/28 68/59/28
f 13/60/29 12/62/29 69/61/29
f 12/62/30 11/64/30 70/63/30
f 11/64/31 10/66/31 71/65/31
f 10/66/32 9/68/32 72/67/32
f 9/68/33 7/71/33 41/69/33
f 3/70/1 4/96/1 41/69/1
f 86/72/34 96/75/34 75/73/34
f 96/75/35 95/77/35 76/76/35
f 95/77/36 94/79/36 77/78/36
f 94/79/37 93/81/37 78/80/37
f 93/81/38 92/83/38 79/82/38
f 92/83/39 91/85/39 80/84/39
f 91/85/40 90/87/40 81/86/40
f 90/87/41 89/89/41 82/88/41
f 89/89/42 88/91/42 83/90/42
f 88/91/43 87/93/43 84/92/43
f 87/93/44 85/3/44 74/2/44
f 86/72/1 73/74/1 2/94/1
