# Blender 4.4.1
# www.blender.org
mtllib right-list1.mtl
o Cube.002
v 0.032372 -1.237218 -0.016951
v 0.032372 1.192186 -0.016951
v 1.968546 -1.204355 0.118010
v 1.968546 1.225049 0.118010
v 0.223260 1.205706 0.090029
v 0.223260 -1.223698 0.090029
v 1.968546 -1.204355 0.118010
v 0.223260 -1.223698 0.090029
v 1.914472 -1.204383 0.119549
v 1.858305 -1.204469 0.120913
v 1.800212 -1.204610 0.122099
v 1.740362 -1.204807 0.123102
v 1.678931 -1.205060 0.123921
v 1.616098 -1.205368 0.124552
v 1.552049 -1.205729 0.124994
v 1.486971 -1.206143 0.125245
v 1.421056 -1.206608 0.125305
v 1.354495 -1.207124 0.125174
v 1.287485 -1.207688 0.124852
v 1.220222 -1.208299 0.124339
v 1.152904 -1.208956 0.123638
v 1.085727 -1.209655 0.122750
v 1.018890 -1.210396 0.121679
v 0.952587 -1.211176 0.120426
v 0.887014 -1.211992 0.118997
v 0.822363 -1.212843 0.117394
v 0.758823 -1.213726 0.115624
v 0.696581 -1.214638 0.113690
v 0.635820 -1.215576 0.111599
v 0.576717 -1.216539 0.109357
v 0.519445 -1.217522 0.106970
v 0.464174 -1.218524 0.104445
v 0.411065 -1.219540 0.101790
v 0.360274 -1.220569 0.099013
v 0.311949 -1.221607 0.096121
v 0.266234 -1.222651 0.093123
v 0.223260 1.205706 0.090029
v 1.968546 1.225049 0.118010
v 0.266234 1.206753 0.093123
v 0.311949 1.207797 0.096121
v 0.360274 1.208835 0.099013
v 0.411065 1.209864 0.101790
v 0.464174 1.210881 0.104445
v 0.519445 1.211882 0.106970
v 0.576717 1.212866 0.109357
v 0.635820 1.213828 0.111599
v 0.696581 1.214766 0.113690
v 0.758823 1.215678 0.115624
v 0.822363 1.216561 0.117394
v 0.887014 1.217412 0.118997
v 0.952587 1.218228 0.120426
v 1.018890 1.219008 0.121679
v 1.085727 1.219749 0.122750
v 1.152904 1.220449 0.123638
v 1.220222 1.221105 0.124339
v 1.287485 1.221716 0.124852
v 1.354495 1.222280 0.125174
v 1.421056 1.222796 0.125305
v 1.486971 1.223261 0.125245
v 1.552049 1.223675 0.124994
v 1.616098 1.224037 0.124552
v 1.678931 1.224344 0.123921
v 1.740362 1.224597 0.123102
v 1.800212 1.224794 0.122099
v 1.858305 1.224936 0.120913
v 1.914472 1.225021 0.119549
v 0.032372 1.192186 -0.016951
v 0.223260 1.205706 0.090029
v 0.039421 1.193414 -0.004866
v 0.049426 1.194725 0.007456
v 0.062183 1.196091 0.019766
v 0.077432 1.197485 0.031812
v 0.094863 1.198878 0.043349
v 0.114122 1.200242 0.054142
v 0.134816 1.201549 0.063971
v 0.156523 1.202773 0.072637
v 0.178802 1.203888 0.079963
v 0.201200 1.204873 0.085800
v 0.223260 -1.223698 0.090029
v 0.032372 -1.237218 -0.016951
v 0.201200 -1.224532 0.085800
v 0.178802 -1.225516 0.079963
v 0.156523 -1.226631 0.072637
v 0.134816 -1.227855 0.063971
v 0.114122 -1.229162 0.054142
v 0.094863 -1.230526 0.043349
v 0.077432 -1.231919 0.031812
v 0.062183 -1.233313 0.019766
v 0.049426 -1.234679 0.007456
v 0.039421 -1.235990 -0.004866
vn -0.0000 1.0000 -0.0000
vn -0.0718 -0.0000 0.9974
vn -0.0654 -0.0000 0.9979
vn -0.0597 -0.0000 0.9982
vn -0.0546 -0.0000 0.9985
vn -0.0499 -0.0000 0.9988
vn -0.0456 -0.0000 0.9990
vn -0.0416 -0.0000 0.9991
vn -0.0379 -0.0000 0.9993
vn -0.0344 -0.0000 0.9994
vn -0.0311 -0.0000 0.9995
vn -0.0279 -0.0000 0.9996
vn -0.0248 -0.0000 0.9997
vn -0.0218 -0.0000 0.9998
vn -0.0189 -0.0000 0.9998
vn -0.0160 -0.0000 0.9999
vn -0.0132 -0.0000 0.9999
vn -0.0104 -0.0000 0.9999
vn -0.0076 -0.0000 1.0000
vn -0.0048 -0.0000 1.0000
vn -0.0020 -0.0000 1.0000
vn 0.0009 -0.0000 1.0000
vn 0.0039 -0.0000 1.0000
vn 0.0069 -0.0000 1.0000
vn 0.0100 -0.0000 0.9999
vn 0.0133 -0.0000 0.9999
vn 0.0168 -0.0000 0.9999
vn 0.0204 -0.0000 0.9998
vn 0.0243 -0.0000 0.9997
vn 0.0284 -0.0000 0.9996
vn -0.8638 -0.0000 0.5038
vn -0.7763 -0.0000 0.6303
vn -0.6944 -0.0000 0.7196
vn -0.6199 -0.0000 0.7847
vn -0.5519 -0.0000 0.8339
vn -0.4889 -0.0000 0.8723
vn -0.4291 -0.0000 0.9033
vn -0.3708 -0.0000 0.9287
vn -0.3124 -0.0000 0.9500
vn -0.2522 -0.0000 0.9677
vn -0.1883 -0.0000 0.9821
vt 0.116695 1.003100
vt 0.115706 0.003372
vt 0.115706 1.002523
vt 0.117683 1.003677
vt 0.116694 0.003949
vt 0.117683 0.004525
vt 0.139449 1.003246
vt 0.139449 0.004095
vt 0.162595 1.002817
vt 0.162595 0.003665
vt 0.187053 1.002390
vt 0.187053 0.003238
vt 0.212751 1.001967
vt 0.212751 0.002815
vt 0.239616 1.001549
vt 0.239616 0.002397
vt 0.267569 1.001137
vt 0.267569 0.001985
vt 0.296528 1.000732
vt 0.296528 0.001581
vt 0.326409 1.000337
vt 0.326409 0.001185
vt 0.357125 0.999951
vt 0.357125 0.000799
vt 0.388585 0.999575
vt 0.388585 0.000424
vt 0.420698 0.999213
vt 0.420698 0.000061
vt 0.453371 0.998863
vt 0.453371 -0.000289
vt 0.486507 0.998527
vt 0.486507 -0.000624
vt 0.520010 0.998206
vt 0.520010 -0.000946
vt 0.553781 0.997901
vt 0.553781 -0.001250
vt 0.587722 0.997614
vt 0.587722 -0.001538
vt 0.621734 0.997344
vt 0.621734 -0.001808
vt 0.655717 0.997092
vt 0.655717 -0.002059
vt 0.689572 0.996860
vt 0.689572 -0.002291
vt 0.723199 0.996648
vt 0.723199 -0.002503
vt 0.756500 0.996457
vt 0.756500 -0.002695
vt 0.789379 0.996286
vt 0.789379 -0.002865
vt 0.821738 0.996138
vt 0.821738 -0.003013
vt 0.853483 0.996011
vt 0.853483 -0.003140
vt 0.884521 0.995908
vt 0.884521 -0.003244
vt 0.914762 0.995826
vt 0.914762 -0.003325
vt 0.944118 0.995768
vt 0.944118 -0.003383
vt 0.972502 0.995733
vt 0.972502 -0.003418
vt 0.999832 0.995722
vt 0.999832 -0.003430
vt 1.000820 0.996298
vt 0.001859 0.008932
vt 0.008927 1.007579
vt 0.008927 0.008427
vt 0.016946 1.007040
vt 0.016946 0.007888
vt 0.025902 1.006478
vt 0.025902 0.007326
vt 0.035720 1.005904
vt 0.035720 0.006753
vt 0.046280 1.005332
vt 0.046280 0.006180
vt 0.057434 1.004770
vt 0.057434 0.005619
vt 0.069008 1.004233
vt 0.069008 0.005081
vt 0.080816 1.003729
vt 0.080816 0.004578
vt 0.092665 1.003271
vt 0.092665 0.004119
vt 0.104358 1.002866
vt 0.104358 0.003715
vt 0.001859 1.008084
vt 0.000870 0.008355
vt 0.000870 1.007507
vt 1.000820 -0.002853
s 0
usemtl right-list
f 6/1/1 68/2/1 79/3/1
f 8/4/1 5/5/1 6/1/1
f 37/6/2 36/7/2 39/8/2
f 39/8/3 35/9/3 40/10/3
f 40/10/4 34/11/4 41/12/4
f 41/12/5 33/13/5 42/14/5
f 42/14/6 32/15/6 43/16/6
f 43/16/7 31/17/7 44/18/7
f 44/18/8 30/19/8 45/20/8
f 45/20/9 29/21/9 46/22/9
f 46/22/10 28/23/10 47/24/10
f 47/24/11 27/25/11 48/26/11
f 48/26/12 26/27/12 49/28/12
f 49/28/13 25/29/13 50/30/13
f 50/30/14 24/31/14 51/32/14
f 51/32/15 23/33/15 52/34/15
f 52/34/16 22/35/16 53/36/16
f 53/36/17 21/37/17 54/38/17
f 54/38/18 20/39/18 55/40/18
f 55/40/19 19/41/19 56/42/19
f 56/42/20 18/43/20 57/44/20
f 57/44/21 17/45/21 58/46/21
f 58/46/22 16/47/22 59/48/22
f 59/48/23 15/49/23 60/50/23
f 60/50/24 14/51/24 61/52/24
f 61/52/25 13/53/25 62/54/25
f 62/54/26 12/55/26 63/56/26
f 63/56/27 11/57/27 64/58/27
f 64/58/28 10/59/28 65/60/28
f 65/60/29 9/61/29 66/62/29
f 66/62/30 7/63/30 38/64/30
f 3/65/1 38/64/1 7/63/1
f 67/66/31 90/67/31 69/68/31
f 69/68/32 89/69/32 70/70/32
f 70/70/33 88/71/33 71/72/33
f 71/72/34 87/73/34 72/74/34
f 72/74/35 86/75/35 73/76/35
f 73/76/36 85/77/36 74/78/36
f 74/78/37 84/79/37 75/80/37
f 75/80/38 83/81/38 76/82/38
f 76/82/39 82/83/39 77/84/39
f 77/84/40 81/85/40 78/86/40
f 78/86/41 79/3/41 68/2/41
f 80/87/1 2/88/1 1/89/1
f 6/1/1 5/5/1 68/2/1
f 8/4/1 37/6/1 5/5/1
f 37/6/2 8/4/2 36/7/2
f 39/8/3 36/7/3 35/9/3
f 40/10/4 35/9/4 34/11/4
f 41/12/5 34/11/5 33/13/5
f 42/14/6 33/13/6 32/15/6
f 43/16/7 32/15/7 31/17/7
f 44/18/8 31/17/8 30/19/8
f 45/20/9 30/19/9 29/21/9
f 46/22/10 29/21/10 28/23/10
f 47/24/11 28/23/11 27/25/11
f 48/26/12 27/25/12 26/27/12
f 49/28/13 26/27/13 25/29/13
f 50/30/14 25/29/14 24/31/14
f 51/32/15 24/31/15 23/33/15
f 52/34/16 23/33/16 22/35/16
f 53/36/17 22/35/17 21/37/17
f 54/38/18 21/37/18 20/39/18
f 55/40/19 20/39/19 19/41/19
f 56/42/20 19/41/20 18/43/20
f 57/44/21 18/43/21 17/45/21
f 58/46/22 17/45/22 16/47/22
f 59/48/23 16/47/23 15/49/23
f 60/50/24 15/49/24 14/51/24
f 61/52/25 14/51/25 13/53/25
f 62/54/26 13/53/26 12/55/26
f 63/56/27 12/55/27 11/57/27
f 64/58/28 11/57/28 10/59/28
f 65/60/29 10/59/29 9/61/29
f 66/62/30 9/61/30 7/63/30
f 3/65/1 4/90/1 38/64/1
f 67/66/31 80/87/31 90/67/31
f 69/68/32 90/67/32 89/69/32
f 70/70/33 89/69/33 88/71/33
f 71/72/34 88/71/34 87/73/34
f 72/74/35 87/73/35 86/75/35
f 73/76/36 86/75/36 85/77/36
f 74/78/37 85/77/37 84/79/37
f 75/80/38 84/79/38 83/81/38
f 76/82/39 83/81/39 82/83/39
f 77/84/40 82/83/40 81/85/40
f 78/86/41 81/85/41 79/3/41
f 80/87/1 67/66/1 2/88/1
